<svg xmlns="http://www.w3.org/2000/svg" width="900" height="460" viewBox="0 0 900 460" role="img" aria-labelledby="title desc">
  <title id="title">Flowchart module architecture</title><desc id="desc">Pure Kotlin modules flow from domain into validation, layout, interaction and serialization, then into Compose and the demo.</desc><rect width="900" height="460" fill="#f8f9ff"/><g font-family="sans-serif" text-anchor="middle" font-size="17"><g fill="white" stroke="#3f4758" stroke-width="2"><rect x="330" y="30" width="240" height="55" rx="10"/><rect x="40" y="150" width="180" height="55" rx="10"/><rect x="250" y="150" width="180" height="55" rx="10"/><rect x="460" y="150" width="180" height="55" rx="10"/><rect x="670" y="150" width="190" height="55" rx="10"/><rect x="350" y="270" width="200" height="55" rx="10" stroke="#0057d9"/><rect x="350" y="375" width="200" height="55" rx="10" stroke="#006c45"/></g><text x="450" y="64">flowchart-domain</text><text x="130" y="184">validation</text><text x="340" y="184">layout</text><text x="550" y="184">interaction</text><text x="765" y="184">serialization</text><text x="450" y="304">flowchart-compose</text><text x="450" y="409">demo-app</text></g><g fill="none" stroke="#596173" stroke-width="2"><path d="M450 85V120H130V150M450 120H340V150M450 120H550V150M450 120H765V150M340 205V240H450V270M550 205V240H450M765 205V240H450M450 325V375"/></g><text x="30" y="445" font-family="sans-serif" font-size="14" fill="#596173">Pure Kotlin/JVM above the blue boundary · Android/Compose below</text>
</svg>
